<mxfile host="app.diagrams.net" agent="Mozilla/5.0 (Windows NT 10.0; Win64; x64; rv:128.0) Gecko/20100101 Firefox/128.0" version="24.7.6">
  <diagram name="Page-1" id="my5xRZlDSJOX66Hebn6K">
    <mxGraphModel dx="1221" dy="662" grid="1" gridSize="10" guides="1" tooltips="1" connect="1" arrows="1" fold="1" page="1" pageScale="1" pageWidth="850" pageHeight="1100" background="#FFFFFF" math="0" shadow="0">
      <root>
        <mxCell id="0" />
        <mxCell id="1" parent="0" />
        <mxCell id="1AQgQ-GcQZeGsVYks37D-1" value="&lt;div&gt;PLAYER INPUT CONTROLLER&lt;/div&gt;" style="rounded=0;whiteSpace=wrap;html=1;fillColor=#d5e8d4;strokeColor=#82b366;fontStyle=1" vertex="1" parent="1">
          <mxGeometry x="280" y="130" width="120" height="60" as="geometry" />
        </mxCell>
        <mxCell id="1AQgQ-GcQZeGsVYks37D-2" value="MONSTER AI CONTROLLER" style="rounded=0;whiteSpace=wrap;html=1;fillColor=#31EB31;strokeColor=#36393d;fontStyle=1;" vertex="1" parent="1">
          <mxGeometry x="440" y="130" width="120" height="60" as="geometry" />
        </mxCell>
        <mxCell id="1AQgQ-GcQZeGsVYks37D-6" value="&lt;h1&gt;GAME MODEL&lt;br&gt;&lt;/h1&gt;" style="ellipse;whiteSpace=wrap;html=1;fillColor=#ffcccc;strokeColor=#36393d;" vertex="1" parent="1">
          <mxGeometry x="330" y="220" width="190" height="120" as="geometry" />
        </mxCell>
        <mxCell id="1AQgQ-GcQZeGsVYks37D-13" value="SELF UPDATES" style="rounded=1;whiteSpace=wrap;html=1;fillColor=#f8cecc;strokeColor=#b85450;gradientColor=#ea6b66;" vertex="1" parent="1">
          <mxGeometry x="395" y="320" width="60" height="30" as="geometry" />
        </mxCell>
        <mxCell id="1AQgQ-GcQZeGsVYks37D-14" value="SENDS DATA&amp;nbsp; RENDER" style="rounded=1;whiteSpace=wrap;html=1;fillColor=#f8cecc;strokeColor=#b85450;gradientColor=#ea6b66;" vertex="1" parent="1">
          <mxGeometry x="460" y="320" width="60" height="50" as="geometry" />
        </mxCell>
        <mxCell id="1AQgQ-GcQZeGsVYks37D-15" value="RECEIVES&lt;br&gt;PLAYER AND AI REQUESTS" style="rounded=1;whiteSpace=wrap;html=1;fillColor=#f8cecc;strokeColor=#b85450;gradientColor=#ea6b66;" vertex="1" parent="1">
          <mxGeometry x="320" y="320" width="70" height="70" as="geometry" />
        </mxCell>
        <mxCell id="1AQgQ-GcQZeGsVYks37D-19" value="PYGAME EVENT GETTER" style="rounded=1;whiteSpace=wrap;html=1;fillColor=#d5e8d4;strokeColor=#82b366;gradientColor=#97d077;" vertex="1" parent="1">
          <mxGeometry x="280" y="180" width="60" height="50" as="geometry" />
        </mxCell>
        <mxCell id="1AQgQ-GcQZeGsVYks37D-21" value="&lt;h1&gt;GRAPHICS AND UI RENDERER&lt;/h1&gt;" style="ellipse;whiteSpace=wrap;html=1;fillColor=#dae8fc;strokeColor=#6c8ebf;gradientColor=#7ea6e0;" vertex="1" parent="1">
          <mxGeometry x="306" y="460" width="237.5" height="150" as="geometry" />
        </mxCell>
        <mxCell id="1AQgQ-GcQZeGsVYks37D-29" value="&lt;b&gt;GRAPHICS RENDER PIPELINE&lt;/b&gt;" style="rounded=0;whiteSpace=wrap;html=1;spacingBottom=0;spacingTop=-87;" vertex="1" parent="1">
          <mxGeometry x="188" y="610" width="475" height="120" as="geometry" />
        </mxCell>
        <mxCell id="1AQgQ-GcQZeGsVYks37D-30" value="&lt;div&gt;Backgrounds&lt;/div&gt;&lt;div&gt;0 - 5&lt;br&gt;&lt;/div&gt;" style="ellipse;whiteSpace=wrap;html=1;aspect=fixed;fillColor=#d5e8d4;strokeColor=#82b366;" vertex="1" parent="1">
          <mxGeometry x="193.25" y="642" width="80" height="80" as="geometry" />
        </mxCell>
        <mxCell id="1AQgQ-GcQZeGsVYks37D-31" value="Enemies, Level Objects,&lt;br&gt;Player" style="ellipse;whiteSpace=wrap;html=1;aspect=fixed;fillColor=#d5e8d4;strokeColor=#82b366;" vertex="1" parent="1">
          <mxGeometry x="288.25" y="642" width="80" height="80" as="geometry" />
        </mxCell>
        <mxCell id="1AQgQ-GcQZeGsVYks37D-33" value="" style="endArrow=classic;html=1;rounded=0;entryX=0;entryY=0.5;entryDx=0;entryDy=0;exitX=1;exitY=0.5;exitDx=0;exitDy=0;" edge="1" parent="1">
          <mxGeometry width="50" height="50" relative="1" as="geometry">
            <mxPoint x="273.25" y="681.88" as="sourcePoint" />
            <mxPoint x="288.25" y="681.88" as="targetPoint" />
            <Array as="points">
              <mxPoint x="278.25" y="681.88" />
            </Array>
          </mxGeometry>
        </mxCell>
        <mxCell id="1AQgQ-GcQZeGsVYks37D-34" value="" style="endArrow=classic;html=1;rounded=0;entryX=0;entryY=0.5;entryDx=0;entryDy=0;exitX=1;exitY=0.5;exitDx=0;exitDy=0;" edge="1" parent="1">
          <mxGeometry width="50" height="50" relative="1" as="geometry">
            <mxPoint x="368.25" y="681.88" as="sourcePoint" />
            <mxPoint x="383.25" y="681.88" as="targetPoint" />
          </mxGeometry>
        </mxCell>
        <mxCell id="1AQgQ-GcQZeGsVYks37D-36" value="Effects" style="ellipse;whiteSpace=wrap;html=1;aspect=fixed;fillColor=#d5e8d4;strokeColor=#82b366;" vertex="1" parent="1">
          <mxGeometry x="384.25" y="642" width="80" height="80" as="geometry" />
        </mxCell>
        <mxCell id="1AQgQ-GcQZeGsVYks37D-38" value="" style="endArrow=classic;html=1;rounded=0;entryX=0;entryY=0.5;entryDx=0;entryDy=0;exitX=1;exitY=0.5;exitDx=0;exitDy=0;" edge="1" parent="1">
          <mxGeometry width="50" height="50" relative="1" as="geometry">
            <mxPoint x="464.25" y="681.8" as="sourcePoint" />
            <mxPoint x="479.25" y="681.8" as="targetPoint" />
          </mxGeometry>
        </mxCell>
        <mxCell id="1AQgQ-GcQZeGsVYks37D-39" value="Foreground&lt;br&gt;6 - 7" style="ellipse;whiteSpace=wrap;html=1;aspect=fixed;fillColor=#d5e8d4;strokeColor=#82b366;" vertex="1" parent="1">
          <mxGeometry x="479.25" y="642" width="80" height="80" as="geometry" />
        </mxCell>
        <mxCell id="1AQgQ-GcQZeGsVYks37D-42" value="" style="endArrow=classic;html=1;rounded=0;entryX=0;entryY=0.5;entryDx=0;entryDy=0;exitX=1;exitY=0.5;exitDx=0;exitDy=0;" edge="1" parent="1">
          <mxGeometry width="50" height="50" relative="1" as="geometry">
            <mxPoint x="560.25" y="681.8" as="sourcePoint" />
            <mxPoint x="575.25" y="681.8" as="targetPoint" />
          </mxGeometry>
        </mxCell>
        <mxCell id="1AQgQ-GcQZeGsVYks37D-44" value="UI" style="ellipse;whiteSpace=wrap;html=1;aspect=fixed;fillColor=#d5e8d4;strokeColor=#82b366;" vertex="1" parent="1">
          <mxGeometry x="576.25" y="642" width="80" height="80" as="geometry" />
        </mxCell>
        <mxCell id="1AQgQ-GcQZeGsVYks37D-45" value="DATABASE" style="rounded=0;whiteSpace=wrap;html=1;spacingTop=-240;fontStyle=1" vertex="1" parent="1">
          <mxGeometry x="115" y="145" width="150" height="280" as="geometry" />
        </mxCell>
        <mxCell id="1AQgQ-GcQZeGsVYks37D-8" value="ENEMIES" style="rounded=1;whiteSpace=wrap;html=1;fillColor=#b1ddf0;strokeColor=#10739e;" vertex="1" parent="1">
          <mxGeometry x="130" y="230" width="120" height="30" as="geometry" />
        </mxCell>
        <mxCell id="1AQgQ-GcQZeGsVYks37D-9" value="PLAYER" style="rounded=1;whiteSpace=wrap;html=1;fillColor=#fad9d5;strokeColor=#ae4132;" vertex="1" parent="1">
          <mxGeometry x="130" y="190" width="120" height="30" as="geometry" />
        </mxCell>
        <mxCell id="1AQgQ-GcQZeGsVYks37D-10" value="LEVEL OBJECTS" style="rounded=1;whiteSpace=wrap;html=1;fillColor=#d0cee2;strokeColor=#56517e;" vertex="1" parent="1">
          <mxGeometry x="130" y="270" width="120" height="30" as="geometry" />
        </mxCell>
        <mxCell id="1AQgQ-GcQZeGsVYks37D-11" value="LEVEL LAYERS" style="rounded=1;whiteSpace=wrap;html=1;fillColor=#bac8d3;strokeColor=#23445d;" vertex="1" parent="1">
          <mxGeometry x="130" y="310" width="120" height="30" as="geometry" />
        </mxCell>
        <mxCell id="1AQgQ-GcQZeGsVYks37D-12" value="UI OBJECTS" style="rounded=1;whiteSpace=wrap;html=1;fillColor=#b0e3e6;strokeColor=#0e8088;" vertex="1" parent="1">
          <mxGeometry x="130" y="350" width="120" height="30" as="geometry" />
        </mxCell>
        <mxCell id="1AQgQ-GcQZeGsVYks37D-46" value="" style="endArrow=classic;html=1;rounded=0;entryX=0.64;entryY=0.043;entryDx=0;entryDy=0;entryPerimeter=0;exitX=0.5;exitY=1;exitDx=0;exitDy=0;" edge="1" parent="1" source="1AQgQ-GcQZeGsVYks37D-14" target="1AQgQ-GcQZeGsVYks37D-21">
          <mxGeometry width="50" height="50" relative="1" as="geometry">
            <mxPoint x="390" y="400" as="sourcePoint" />
            <mxPoint x="440" y="350" as="targetPoint" />
          </mxGeometry>
        </mxCell>
        <mxCell id="1AQgQ-GcQZeGsVYks37D-47" value="" style="endArrow=classic;html=1;rounded=0;exitX=0.5;exitY=1;exitDx=0;exitDy=0;entryX=0.739;entryY=0.055;entryDx=0;entryDy=0;entryPerimeter=0;" edge="1" parent="1" source="1AQgQ-GcQZeGsVYks37D-2" target="1AQgQ-GcQZeGsVYks37D-6">
          <mxGeometry width="50" height="50" relative="1" as="geometry">
            <mxPoint x="420" y="300" as="sourcePoint" />
            <mxPoint x="460" y="230" as="targetPoint" />
          </mxGeometry>
        </mxCell>
        <mxCell id="1AQgQ-GcQZeGsVYks37D-48" value="" style="endArrow=classic;html=1;rounded=0;entryX=0.26;entryY=0.056;entryDx=0;entryDy=0;entryPerimeter=0;exitX=0.5;exitY=1;exitDx=0;exitDy=0;" edge="1" parent="1" source="1AQgQ-GcQZeGsVYks37D-1" target="1AQgQ-GcQZeGsVYks37D-6">
          <mxGeometry width="50" height="50" relative="1" as="geometry">
            <mxPoint x="280" y="270" as="sourcePoint" />
            <mxPoint x="330" y="220" as="targetPoint" />
          </mxGeometry>
        </mxCell>
        <mxCell id="1AQgQ-GcQZeGsVYks37D-49" value="" style="endArrow=classic;startArrow=classic;html=1;rounded=0;entryX=0;entryY=0.5;entryDx=0;entryDy=0;exitX=1;exitY=0.5;exitDx=0;exitDy=0;" edge="1" parent="1" source="1AQgQ-GcQZeGsVYks37D-45" target="1AQgQ-GcQZeGsVYks37D-6">
          <mxGeometry width="50" height="50" relative="1" as="geometry">
            <mxPoint x="220" y="310" as="sourcePoint" />
            <mxPoint x="270" y="260" as="targetPoint" />
          </mxGeometry>
        </mxCell>
      </root>
    </mxGraphModel>
  </diagram>
</mxfile>
